<?xml version="1.0" encoding="utf-8"?>
<svg version="1.1" xmlns:xlink="http://www.w3.org/1999/xlink" width="110px" height="110px" xmlns="http://www.w3.org/2000/svg">
  <defs>
    <path d="M 0 0  L 1024 0  L 1024 1024  L 0 1024  Z " fill-rule="evenodd" fill="black" id="path1" />
    <clipPath id="clip2">
      <use xlink:href="#path1" />
    </clipPath>
    <filter x="-50.00%" y="-50.00%" width="200.00%" height="200.00%" filterUnits="objectBoundingBox" id="filter3">
      <feColorMatrix type="matrix" values="1 0 0 0 0  0 1 0 0 0  0 0 1 0 0  0 0 0 1 0  " in="SourceGraphic" />
    </filter>
    <filter x="874px" y="1216px" width="110px" height="110px" filterUnits="userSpaceOnUse" id="filter4">
      <feOffset dx="0" dy="0" in="SourceAlpha" result="shadowOffsetInner" />
      <feGaussianBlur stdDeviation="10" in="shadowOffsetInner" result="shadowGaussian" />
      <feComposite in2="shadowGaussian" operator="atop" in="SourceAlpha" result="shadowComposite" />
      <feColorMatrix type="matrix" values="0 0 0 0 0.850980392156863  0 0 0 0 0  0 0 0 0 0.105882352941176  0 0 0 1 0  " in="shadowComposite" />
    </filter>
    <g id="widget5">
      <g transform="matrix(0.068359375 0 0 0.068359375 894 1236 )" clip-path="url(#clip2)" filter="url(#filter3)">
        <path d="M541.279573 529.974613c-17.44896-10.07616-43.88864-11.175253-59.00288-2.450773L85.2992 756.722347c-15.121067 8.72448-13.216427 23.988907 4.232533 34.065066l388.5056 224.303787c17.455787 10.07616 43.895467 11.175253 59.009707 2.450773l396.977493-229.198506c15.11424-8.72448 13.216427-23.988907-4.23936-34.065067l-388.5056-224.303787z" fill="#4762AF" p-id="2543"></path>
        <path d="M75.093333 249.883307v521.632426l434.56512 251.890347V501.773653L75.093333 249.883307z" fill="#4762AF" p-id="2544"></path>
        <path d="M507.262293 495.363413l436.927147-247.207253v524.376747L507.262293 679.0144V495.363413z" fill="#4762AF" p-id="2545"></path>
        <path d="M541.279573 8.33536C523.830613-1.7408 497.390933-2.833067 482.276693 5.891413L85.2992 235.083093c-15.121067 8.731307-13.216427 23.995733 4.232533 34.071894l388.5056 224.303786c17.455787 10.07616 43.895467 11.168427 59.009707 2.443947l396.977493-229.19168c15.11424-8.731307 13.216427-23.995733-4.23936-34.071893L541.279573 8.33536zM117.848747 430.30528c0 17.005227 10.349227 36.78208 23.10144 44.148053l179.042986 103.36256c12.752213 7.365973 23.10144-0.464213 23.10144-17.462613 0-17.005227-10.349227-36.78208-23.10144-44.148053L140.950187 412.842667c-12.752213-7.365973-23.10144 0.464213-23.10144 17.462613z" fill="#6D8ACA" p-id="2546"></path>
        <path d="M429.458773 579.413333c14.72512 8.4992 26.678613 29.20448 26.678614 46.20288 0 17.005227-11.953493 23.906987-26.678614 15.407787-14.718293-8.506027-26.678613-29.211307-26.678613-46.209707 0-17.005227 11.96032-23.906987 26.678613-15.40096z" fill="#60E000" p-id="2547"></path>
        <path d="M117.848747 562.56512c0 17.005227 10.349227 36.78208 23.10144 44.148053l179.042986 103.369387c12.752213 7.359147 23.10144-0.464213 23.10144-17.46944 0-16.9984-10.349227-36.78208-23.10144-44.141227L140.950187 545.102507c-12.752213-7.365973-23.10144 0.464213-23.10144 17.462613z" fill="#6D8ACA" p-id="2548"></path>
        <path d="M429.458773 711.673173c14.72512 8.4992 26.678613 29.20448 26.678614 46.209707 0 16.9984-11.953493 23.90016-26.678614 15.40096-14.718293-8.4992-26.678613-29.20448-26.678613-46.209707 0-16.9984 11.96032-23.90016 26.678613-15.40096z" fill="#60E000" p-id="2549"></path>
        <path d="M117.848747 694.831787c0 16.9984 10.349227 36.78208 23.10144 44.141226l179.042986 103.369387c12.752213 7.359147 23.10144-0.464213 23.10144-17.46944 0-16.9984-10.349227-36.78208-23.10144-44.141227L140.950187 677.362347c-12.752213-7.359147-23.10144 0.464213-23.10144 17.46944z" fill="#6D8ACA" p-id="2550"></path>
        <path d="M429.458773 843.933013c14.72512 8.4992 26.678613 29.20448 26.678614 46.209707 0 16.9984-11.953493 23.90016-26.678614 15.40096-14.718293-8.4992-26.678613-29.20448-26.678613-46.209707 0-16.9984 11.96032-23.90016 26.678613-15.40096z" fill="#60E000" p-id="2551"></path>
      </g>
    </g>
  </defs>
  <g transform="matrix(1 0 0 1 -874 -1216 )">
    <use xlink:href="#widget5" filter="url(#filter4)" />
    <use xlink:href="#widget5" />
  </g>
</svg>